<svg xmlns="http://www.w3.org/2000/svg" viewBox="0 0 448 512" fill="#8b4513">
  <path d="M224.1 141c-63.6 0-114.9 51.3-114.9 114.9s51.3 114.9 
  114.9 114.9S339 319.5 339 255.9 287.7 141 224.1 
  141zm0 189.6c-41.2 0-74.7-33.5-74.7-74.7s33.5-74.7 
  74.7-74.7 74.7 33.5 74.7 74.7-33.5 74.7-74.7 
  74.7zm146.4-194.3c0 14.9-12 26.9-26.9 
  26.9-14.9 0-26.9-12-26.9-26.9s12-26.9 
  26.9-26.9 26.9 12 26.9 26.9zm76.1 
  27.2c-1.7-35.9-9.9-67.7-36.2-93.9s-58-34.5-93.9-36.2C293.7 
  32 284.4 32 224 32s-69.7 0-92.6 
  1.7c-35.9 1.7-67.7 9.9-93.9 
  36.2S3 128.7 1.3 164.6C-.4 187.5-.4 196.8-.4 
  257.2s0 69.7 1.7 92.6c1.7 35.9 9.9 67.7 36.2 
  93.9s58 34.5 93.9 36.2c22.9 1.7 32.2 
  1.7 92.6 1.7s69.7 0 92.6-1.7c35.9-1.7 
  67.7-9.9 93.9-36.2s34.5-58 36.2-93.9c1.7-22.9 
  1.7-32.2 1.7-92.6s0-69.7-1.7-92.6zM398.8 
  388c-7.8 19.5-22.9 34.6-42.4 
  42.4-29.4 11.7-99.2 9-132.4 9s-103 
  2.6-132.4-9c-19.5-7.8-34.6-22.9-42.4-42.4-11.7-29.4-9-99.2-9-132.4s-2.6-103 
  9-132.4c7.8-19.5 22.9-34.6 42.4-42.4 29.4-11.7 99.2-9 132.4-9s103-2.6 
  132.4 9c19.5 7.8 34.6 22.9 42.4 42.4 11.7 29.4 9 99.2 
  9 132.4s2.7 103-9 132.4z"/>
</svg>
